<svg width="129" height="68" viewBox="0 0 129 68" fill="none" xmlns="http://www.w3.org/2000/svg">
<path d="M113.667 5.76671C105.062 1.03836 85.4813 -11.878 50.0149 28.4187L43.6732 34.8566C43.6732 34.8566 13.5454 22.3287 3.34219 35.9541C-5.25385 47.4333 4.29733 59.3907 14.326 59.3907C25.4139 59.3907 35.5797 50.7356 42.9685 43.2021L67.9125 60.0837C75.4286 65.1387 84.213 68 93.1853 68C102.392 67.9523 114.23 65.2818 122.075 54.4088C137.536 32.1277 123.687 11.5609 113.667 5.76671ZM16.2621 45.0346C15.7702 42.5481 16.9702 40.6289 18.709 39.7776C24.0604 37.1575 36.6269 41.0561 36.6269 41.0561C36.6269 41.0561 27.5578 48.4345 21.511 48.8884C19.0584 49.0725 16.841 47.9603 16.2621 45.0346ZM103.565 31.9482C102.156 39.5784 95.625 48.9107 69.5097 42.4867C53.538 38.1948 49.4317 36.3134 49.4317 36.3134C49.4317 36.3134 67.1748 17.5033 81.7233 15.3044C99.3427 12.6413 104.975 24.3181 103.565 31.9482Z" fill="black"/>
<path d="M113.667 5.76671C105.062 1.03836 85.4813 -11.878 50.0149 28.4187L43.6732 34.8566C43.6732 34.8566 13.5454 22.3287 3.34219 35.9541C-5.25385 47.4333 4.29733 59.3907 14.326 59.3907C25.4139 59.3907 35.5797 50.7356 42.9685 43.2021L67.9125 60.0837C75.4286 65.1387 84.213 68 93.1853 68C102.392 67.9523 114.23 65.2818 122.075 54.4088C137.536 32.1277 123.687 11.5609 113.667 5.76671ZM16.2621 45.0346C15.7702 42.5481 16.9702 40.6289 18.709 39.7776C24.0604 37.1575 36.6269 41.0561 36.6269 41.0561C36.6269 41.0561 27.5578 48.4345 21.511 48.8884C19.0584 49.0725 16.841 47.9603 16.2621 45.0346ZM103.565 31.9482C102.156 39.5784 95.625 48.9107 69.5097 42.4867C53.538 38.1948 49.4317 36.3134 49.4317 36.3134C49.4317 36.3134 67.1748 17.5033 81.7233 15.3044C99.3427 12.6413 104.975 24.3181 103.565 31.9482Z" fill="white"/>
</svg>
