<svg width="95" height="24" viewBox="0 0 95 24" fill="none" xmlns="http://www.w3.org/2000/svg">
<path d="M30.8398 4.52648C28.5053 3.27486 23.1926 -0.144171 13.5699 10.5226L11.8493 12.2268C11.8493 12.2268 3.67511 8.91055 0.906796 12.5173C-1.42546 15.5559 1.16594 18.7211 3.88691 18.7211C6.89526 18.7211 9.6534 16.43 11.6581 14.4358L18.4259 18.9045C20.4651 20.2426 22.8485 21 25.2828 21C27.7809 20.9874 30.9927 20.2805 33.1212 17.4023C37.3161 11.5044 33.5585 6.06024 30.8398 4.52648ZM4.4122 14.9209C4.27873 14.2627 4.60432 13.7547 5.07608 13.5294C6.52802 12.8358 9.93752 13.8678 9.93752 13.8678C9.93752 13.8678 7.47694 15.8209 5.83632 15.941C5.1709 15.9898 4.56925 15.6954 4.4122 14.9209ZM28.0991 11.4569C27.7168 13.4766 25.9448 15.9469 18.8592 14.2465C14.5258 13.1104 13.4117 12.6124 13.4117 12.6124C13.4117 12.6124 18.2257 7.63322 22.173 7.05116C26.9535 6.34624 28.4815 9.43714 28.0991 11.4569Z" fill="black"/>
<path d="M30.8398 4.52648C28.5053 3.27486 23.1926 -0.144171 13.5699 10.5226L11.8493 12.2268C11.8493 12.2268 3.67511 8.91055 0.906796 12.5173C-1.42546 15.5559 1.16594 18.7211 3.88691 18.7211C6.89526 18.7211 9.6534 16.43 11.6581 14.4358L18.4259 18.9045C20.4651 20.2426 22.8485 21 25.2828 21C27.7809 20.9874 30.9927 20.2805 33.1212 17.4023C37.3161 11.5044 33.5585 6.06024 30.8398 4.52648ZM4.4122 14.9209C4.27873 14.2627 4.60432 13.7547 5.07608 13.5294C6.52802 12.8358 9.93752 13.8678 9.93752 13.8678C9.93752 13.8678 7.47694 15.8209 5.83632 15.941C5.1709 15.9898 4.56925 15.6954 4.4122 14.9209ZM28.0991 11.4569C27.7168 13.4766 25.9448 15.9469 18.8592 14.2465C14.5258 13.1104 13.4117 12.6124 13.4117 12.6124C13.4117 12.6124 18.2257 7.63322 22.173 7.05116C26.9535 6.34624 28.4815 9.43714 28.0991 11.4569Z" fill="white"/>
<path d="M42.7812 19.2246C41.7656 19.2246 41.0527 18.6387 41.0527 17.4277V9.89844C41.0527 8.7168 41.7461 8.14062 42.7422 8.14062C43.7285 8.14062 44.4219 8.70703 44.4219 9.89844V10.416H44.4902C44.9102 9.04883 46.0723 8.16016 47.5273 8.16016C49.1094 8.16016 50.1836 8.98047 50.4863 10.4258H50.5547C50.9648 9.05859 52.2539 8.16016 53.8359 8.16016C55.916 8.16016 57.332 9.625 57.332 11.7832V17.4277C57.332 18.6387 56.6094 19.2246 55.5938 19.2246C54.5781 19.2246 53.8652 18.6387 53.8652 17.4277V12.6621C53.8652 11.5488 53.3477 10.9727 52.3711 10.9727C51.4336 10.9727 50.8477 11.6465 50.8477 12.6914V17.4277C50.8477 18.6387 50.2031 19.2246 49.1875 19.2246C48.1719 19.2246 47.5371 18.6387 47.5371 17.4277V12.623C47.5371 11.5586 47.0098 10.9727 46.0625 10.9727C45.125 10.9727 44.5195 11.666 44.5195 12.7109V17.4277C44.5195 18.6387 43.7969 19.2246 42.7812 19.2246ZM63.0703 19.2539C59.6621 19.2539 57.6406 17.1934 57.6406 13.7363C57.6406 10.2891 59.6914 8.11133 62.9336 8.11133C66.0977 8.11133 68.1777 10.2012 68.1777 13.0723C68.1777 13.9512 67.6797 14.4395 66.7812 14.4395H61V14.6348C61 15.9238 61.8496 16.8027 63.0996 16.8027C64.0469 16.8027 64.7012 16.5 65.4727 15.7188C65.834 15.377 66.1172 15.2598 66.5469 15.2598C67.25 15.2598 67.8457 15.709 67.8457 16.4707C67.8457 16.7344 67.7676 16.998 67.6113 17.252C66.9082 18.502 65.1895 19.2539 63.0703 19.2539ZM61.0488 12.4668H64.916C64.8574 11.3145 64.0859 10.5723 63.002 10.5723C61.9277 10.5723 61.1367 11.3535 61.0488 12.4668ZM72.4414 19.1562C69.7949 19.1562 68.2031 17.0957 68.2031 13.6582C68.2031 10.2598 69.8242 8.20898 72.4805 8.20898C74.0234 8.20898 75.1953 9.04883 75.6641 10.2402H75.7324V6.48047C75.7324 5.26953 76.4453 4.68359 77.4609 4.68359C78.4766 4.68359 79.1895 5.26953 79.1895 6.48047V17.4473C79.1895 18.6484 78.4766 19.2246 77.4609 19.2246C76.4551 19.2246 75.7324 18.6484 75.7324 17.4473V17.1445H75.6641C75.2539 18.2969 74.0527 19.1562 72.4414 19.1562ZM73.7402 16.4512C74.9902 16.4512 75.7422 15.416 75.7422 13.6875C75.7422 11.9785 74.9805 10.9141 73.7402 10.9141C72.5 10.9141 71.748 11.9785 71.748 13.6875C71.748 15.4062 72.4902 16.4512 73.7402 16.4512ZM81.6855 19.2246C80.6699 19.2246 79.9473 18.6387 79.9473 17.4277V6.48047C79.9473 5.26953 80.6699 4.68359 81.6855 4.68359C82.6914 4.68359 83.4141 5.26953 83.4141 6.48047V17.4277C83.4141 18.6387 82.6914 19.2246 81.6855 19.2246ZM86.3301 22.916C84.8652 22.916 84.0645 22.3496 84.0645 21.3242C84.0645 20.6406 84.543 20.2207 85.3047 20.2207C85.4707 20.2207 85.5977 20.2305 85.7637 20.2305C86.1836 20.2305 86.6816 20.1133 86.9941 19.6445L87.082 19.4395L83.8398 10.7969C83.7031 10.4453 83.625 10.0449 83.625 9.75195C83.625 8.82422 84.4062 8.14062 85.4316 8.14062C86.3594 8.14062 86.8281 8.53125 87.1113 9.56641L89.1035 16.4023H89.1621L91.1543 9.52734C91.4277 8.57031 91.9453 8.14062 92.834 8.14062C93.8301 8.14062 94.5234 8.78516 94.5234 9.68359C94.5234 9.97656 94.4355 10.4062 94.3184 10.7383L91.3887 18.9023C90.3633 21.8027 88.9473 22.916 86.3301 22.916Z" fill="white"/>
</svg>
