<svg width="156" height="30" viewBox="0 0 156 30" fill="none" xmlns="http://www.w3.org/2000/svg">
<path d="M30.1038 7.05104C28.8099 6.26649 22.6391 2.15107 13.246 13.3416L11.5665 15.1294C11.5665 15.1294 3.5874 11.6503 0.885153 15.4342C-1.39144 18.6219 1.13812 21.9425 3.79415 21.9425C6.7307 21.9425 9.42301 19.539 11.3799 17.4469L17.9862 22.135C19.9767 23.5388 22.3032 24.3333 24.6794 24.3333C27.1179 24.3201 30.253 23.5785 32.3307 20.559C36.4255 14.3716 32.7577 8.6601 30.1038 7.05104ZM4.3069 17.9558C4.17661 17.2653 4.49444 16.7324 4.95493 16.4959C6.37222 15.7683 9.70037 16.851 9.70037 16.851C9.70037 16.851 7.2985 18.8999 5.69703 19.026C5.04749 19.0771 4.46021 18.7683 4.3069 17.9558ZM27.4285 14.3217C27.0553 16.4406 25.3256 19.0322 18.4091 17.2483C14.1791 16.0564 13.0916 15.5339 13.0916 15.5339C13.0916 15.5339 17.7907 10.3103 21.6438 9.69967C26.3102 8.96014 27.8018 12.2028 27.4285 14.3217Z" fill="url(#paint0_linear_48_1928)"/>
<path d="M44.5202 22.2051C43.6706 22.2051 43.0944 21.6875 43.0944 20.7207V12.7715C43.0944 11.8145 43.6608 11.3164 44.4713 11.3164C45.2819 11.3164 45.8483 11.8145 45.8483 12.7715V13.4258H45.9069C46.3463 12.166 47.4694 11.3359 48.8952 11.3359C50.4088 11.3359 51.4635 12.1172 51.8151 13.4844H51.8737C52.3424 12.166 53.5924 11.3359 55.1256 11.3359C57.1764 11.3359 58.5534 12.7422 58.5534 14.8516V20.7207C58.5534 21.6875 57.9674 22.2051 57.1178 22.2051C56.278 22.2051 55.7018 21.6875 55.7018 20.7207V15.5645C55.7018 14.3535 55.0963 13.6895 53.9928 13.6895C52.9088 13.6895 52.196 14.4805 52.196 15.6426V20.7207C52.196 21.6875 51.6686 22.2051 50.819 22.2051C49.9792 22.2051 49.4518 21.6875 49.4518 20.7207V15.4766C49.4518 14.3535 48.817 13.6895 47.7624 13.6895C46.6784 13.6895 45.946 14.5098 45.946 15.6816V20.7207C45.946 21.6875 45.36 22.2051 44.5202 22.2051ZM65.1745 22.2246C61.903 22.2246 59.9792 20.2031 59.9792 16.8145C59.9792 13.4453 61.942 11.3066 65.0378 11.3066C68.0065 11.3066 69.9987 13.3379 69.9987 16.1797C69.9987 16.9707 69.5495 17.4199 68.7585 17.4199H62.7819V17.5469C62.7819 19.0996 63.7194 20.1152 65.1647 20.1152C66.2096 20.1152 66.8932 19.7637 67.6647 18.8555C67.9674 18.543 68.2213 18.4355 68.5924 18.4355C69.2077 18.4355 69.7057 18.8262 69.7057 19.4805C69.7057 19.7051 69.6374 19.9395 69.5104 20.1738C68.817 21.4629 67.196 22.2246 65.1745 22.2246ZM62.8112 15.6719H67.2545C67.196 14.3047 66.317 13.416 65.067 13.416C63.817 13.416 62.9088 14.334 62.8112 15.6719ZM75.36 22.166C72.7428 22.166 71.0924 20.0957 71.0924 16.7461C71.0924 13.4258 72.7526 11.3652 75.3795 11.3652C76.8932 11.3652 78.0651 12.166 78.5729 13.3281H78.6315V9.1875C78.6315 8.21094 79.2272 7.69336 80.0573 7.69336C80.8971 7.69336 81.4831 8.21094 81.4831 9.1875V20.7598C81.4831 21.707 80.8971 22.2051 80.067 22.2051C79.2467 22.2051 78.6315 21.7168 78.6315 20.7598V20.1543H78.5827C78.1237 21.3262 76.9713 22.166 75.36 22.166ZM76.3268 19.8711C77.7428 19.8711 78.651 18.6797 78.651 16.7656C78.651 14.8613 77.7428 13.6504 76.3268 13.6504C74.8913 13.6504 74.0124 14.8516 74.0124 16.7656C74.0124 18.6895 74.8913 19.8711 76.3268 19.8711ZM84.8815 22.2051C84.0514 22.2051 83.4557 21.6973 83.4557 20.7207V9.1875C83.4557 8.21094 84.0514 7.69336 84.8815 7.69336C85.7213 7.69336 86.3073 8.21094 86.3073 9.1875V20.7207C86.3073 21.6973 85.7213 22.2051 84.8815 22.2051ZM90.0085 25.877C88.7585 25.877 88.0846 25.3984 88.0846 24.5391C88.0846 23.9629 88.485 23.6016 89.1295 23.6016C89.3249 23.6016 89.4323 23.6113 89.6276 23.6113C90.1256 23.6113 90.6628 23.3965 91.0045 22.6641L91.151 22.293L87.8112 13.4844C87.7038 13.1914 87.6452 12.8789 87.6452 12.6445C87.6452 11.873 88.2799 11.3164 89.1198 11.3164C89.8717 11.3164 90.2624 11.6387 90.4967 12.4688L92.7721 19.7148H92.821L95.0963 12.4492C95.3307 11.6582 95.7409 11.3164 96.4733 11.3164C97.2936 11.3164 97.86 11.8535 97.86 12.6055C97.86 12.8398 97.8014 13.1719 97.7038 13.4453L94.4909 22.1758C93.5143 24.8809 92.3034 25.877 90.0085 25.877Z" fill="black"/>
<path d="M107.62 22.166C104.866 22.166 103.089 20.1836 103.089 16.9316V16.9219C103.089 13.6895 104.876 11.6777 107.512 11.6777C110.139 11.6777 111.897 13.6504 111.897 16.6973V17.0488H103.85C103.889 19.9004 105.383 21.4824 107.63 21.4824C109.397 21.4824 110.608 20.584 110.979 19.168L111.008 19.0898H111.77L111.751 19.1777C111.35 20.9941 109.788 22.166 107.62 22.166ZM107.503 12.3613C105.442 12.3613 103.948 13.9238 103.85 16.4141H111.145C111.048 13.8945 109.573 12.3613 107.503 12.3613ZM112.542 22L116.262 16.8438L112.561 11.8438H113.45L116.692 16.2676H116.712L119.954 11.8438H120.842L117.132 16.8242L120.823 22H119.944L116.702 17.4395H116.673L113.421 22H112.542ZM125.051 22.166C123.069 22.166 121.692 20.9844 121.692 19.2656V19.2461C121.692 17.5176 122.952 16.5215 125.286 16.3457L128.782 16.1016V15.1934C128.782 13.4258 127.717 12.3613 125.921 12.3613C124.212 12.3613 123.059 13.1914 122.805 14.666L122.786 14.7734H122.053L122.073 14.6562C122.317 12.8008 123.753 11.6777 125.921 11.6777C128.157 11.6777 129.544 13.0059 129.544 15.1348V22H128.782V19.8613H128.762C128.255 21.2285 126.751 22.166 125.051 22.166ZM122.464 19.2656C122.464 20.5742 123.587 21.4824 125.159 21.4824C127.161 21.4824 128.782 20.0469 128.782 18.2305V16.7266L125.393 16.9707C123.499 17.1172 122.464 17.9082 122.464 19.2461V19.2656ZM131.721 22V11.8438H132.483V13.9434H132.503C132.874 12.6641 133.948 11.6875 135.52 11.6875C137.122 11.6875 138.264 12.752 138.567 14.0996H138.596C138.967 12.791 140.11 11.6875 141.809 11.6875C143.772 11.6875 145.071 13.0352 145.071 15.1445V22H144.309V15.3203C144.309 13.4941 143.303 12.3711 141.643 12.3711C139.934 12.3711 138.772 13.7285 138.772 15.6816V22H138.02V15.291C138.02 13.5234 136.917 12.3711 135.364 12.3711C133.665 12.3711 132.483 13.7773 132.483 15.9355V22H131.721ZM150.589 22.166C148.401 22.166 146.887 20.9258 146.692 19.1582L146.682 19.0703H147.434L147.454 19.1582C147.649 20.5352 148.86 21.502 150.579 21.502C152.327 21.502 153.518 20.6328 153.518 19.373V19.3633C153.518 18.2793 152.883 17.7227 151.253 17.3418L149.837 17.0098C147.903 16.5605 147.014 15.7695 147.014 14.4414V14.4316C147.014 12.8203 148.46 11.6777 150.471 11.6777C152.551 11.6777 153.909 12.8789 154.114 14.6855L154.124 14.7734H153.391L153.382 14.7051C153.186 13.2793 152.092 12.3418 150.471 12.3418C148.889 12.3418 147.776 13.2109 147.776 14.4219V14.4316C147.776 15.3984 148.43 15.9648 150.061 16.3457L151.477 16.6777C153.469 17.1465 154.29 17.918 154.29 19.3242V19.334C154.29 21.0039 152.747 22.166 150.589 22.166Z" fill="black"/>
<defs>
<linearGradient id="paint0_linear_48_1928" x1="17.0823" y1="5.66666" x2="17.0823" y2="24.3333" gradientUnits="userSpaceOnUse">
<stop stopColor="rgba(0,0,0,0.5)"/>
<stop offset="1" stopColor="#000000"/>
</linearGradient>
</defs>
</svg>
